<?xml version="1.0" encoding="UTF-8"?>
<svg version="1.1" xmlns="http://www.w3.org/2000/svg" width="404" height="204">
<path d="M0 0 C1.64485618 -0.00302974 1.64485618 -0.00302974 3.32294178 -0.00612068 C60.0690429 -0.00400275 108.3674167 7.06097635 149.73876953 48.35693359 C168.77203422 67.82440888 185.42698846 89.49093108 200.125 112.375 C181.09364278 151.90053347 139.28525079 199.93171633 97.49119186 215.34641457 C66.43906843 225.67067643 32.68356362 226.74625829 0.25 226.75 C-1.39485618 226.75302974 -1.39485618 226.75302974 -3.07294178 226.75612068 C-59.8190429 226.75400275 -108.1174167 219.68902365 -149.48876953 178.39306641 C-168.52203422 158.92559112 -185.17698846 137.25906892 -199.875 114.375 C-159.96915677 31.49600592 -87.82028794 0.01013142 0 0 Z " fill="currentColor" transform="translate(201.875,-11.375)"/>
</svg>
