<?xml version="1.0" encoding="UTF-8"?>
<svg version="1.1" xmlns="http://www.w3.org/2000/svg" width="404" height="204">
<path d="M0 0 C36.50072946 -2.32232422 72.98800632 -4.06666863 109.54814814 -5.10653295 C113.92577206 -5.23150682 118.30325317 -5.36094817 122.68066406 -5.49316406 C123.98709415 -5.53251063 123.98709415 -5.53251063 125.31991675 -5.57265207 C137.47632263 -5.94799526 149.59941104 -6.5612406 161.73415929 -7.37343282 C182.68759023 -8.77560217 203.60625077 -9.69407743 224.609375 -9.765625 C225.42800325 -9.7694822 226.2466315 -9.77333939 227.09006667 -9.77731347 C275.95576716 -9.93133719 309.36456207 -0.20022202 344.70194802 34.4877921 C364.94543193 54.69476752 383.16986529 76.90319395 400 100 C382.7211802 136.74957327 334.13038591 189.39076268 295.69945335 203.69646645 C273.086377 211.33209292 248.43140893 211.67173603 224.8046875 211.5703125 C223.98636196 211.56774535 223.16803643 211.5651782 222.32491314 211.56253326 C201.28191948 211.47326125 180.32009025 210.43378002 159.32675481 209.05861163 C147.15215613 208.27011696 134.98510166 207.74301023 122.79052734 207.38330078 C121.48499969 207.34468043 121.48499969 207.34468043 120.15309773 207.30527987 C115.78249306 207.17729539 111.41178221 207.05347402 107.04100013 206.93171334 C71.31986666 205.93130202 35.66538881 204.2209668 0 202 C1.57550666 198.68327876 3.27389391 196.47877944 5.88504028 193.87445068 C6.6955484 193.06119324 7.50605652 192.24793579 8.34112549 191.41003418 C9.23160583 190.52674438 10.12208618 189.64345459 11.03955078 188.73339844 C11.9860762 187.78743735 12.93216107 186.84103527 13.87783813 185.89422607 C16.44342674 183.32806382 19.01513359 180.76811335 21.58798075 178.20923138 C24.27681834 175.53289903 26.95999062 172.8508992 29.64376831 170.16949463 C34.72543613 165.09404217 39.81218055 160.02370937 44.90076721 154.95519471 C50.69424818 149.18407095 56.48204897 143.40726493 62.2693789 137.62997389 C74.17327565 125.74698043 86.08428765 113.87114554 98 102 C96.54279339 98.64559798 94.70128789 96.45796949 92.11495972 93.88790894 C91.3044516 93.07754181 90.49394348 92.26717468 89.65887451 91.43225098 C88.76839417 90.55210327 87.87791382 89.67195557 86.96044922 88.76513672 C86.01390946 87.82243654 85.06782496 86.87927906 84.12216187 85.93569946 C82.08753003 83.90738338 80.04983412 81.88221477 78.00973129 79.8594017 C74.78642592 76.66313994 71.57076195 73.45926447 68.35623169 70.25418091 C61.53504748 63.45519053 54.70544463 56.66468513 47.875 49.875 C40.494413 42.53842304 33.11527242 35.20042641 25.74582303 27.85265934 C22.54728807 24.6641132 19.34393362 21.48051232 16.13685966 18.30055594 C14.62552625 16.80051942 13.11647132 15.29823589 11.60842896 13.79489136 C9.76610929 11.95833783 7.92016133 10.12541457 6.07006836 8.29669189 C5.26519989 7.49196442 4.46033142 6.68723694 3.631073 5.85812378 C2.92573362 5.15722563 2.22039425 4.45632748 1.49368095 3.73418999 C0 2 0 2 0 0 Z " fill="currentColor" transform="translate(2,1)"/>
</svg>
