<?xml version="1.0" encoding="UTF-8"?>
<svg version="1.1" xmlns="http://www.w3.org/2000/svg" width="404" height="204">
<path d="M0 0 C0.98533984 -0.06366093 1.97067967 -0.12732187 2.98587829 -0.19291192 C4.6301178 -0.29086062 4.6301178 -0.29086062 6.30757427 -0.39078808 C8.0406196 -0.49790459 8.0406196 -0.49790459 9.80867594 -0.60718507 C13.03354687 -0.80313771 16.25867522 -0.99351653 19.48413002 -1.1795913 C21.54790707 -1.29870459 23.61158976 -1.41937197 25.67527485 -1.54006672 C52.1359644 -3.07688308 78.60877994 -4.04921057 105.10293775 -4.78787132 C109.47779679 -4.9101881 113.85251992 -5.03685131 118.22717571 -5.16622448 C119.53275754 -5.20472279 119.53275754 -5.20472279 120.86471476 -5.24399885 C133.01523047 -5.61154438 145.13208078 -6.21859864 157.26095794 -7.02678023 C178.20771881 -8.42240469 199.11950503 -9.33532442 220.11560345 -9.39840221 C220.93387704 -9.40190475 221.75215063 -9.40540728 222.59522039 -9.40901595 C271.44558558 -9.54094131 304.84482209 0.22090848 340.1684568 34.89473455 C360.41218659 55.10121981 378.63807198 77.30783507 395.4710722 100.40237904 C378.19245619 137.15325484 329.59440966 189.77875619 291.17201042 204.10033035 C268.57176498 211.7432459 243.92827656 212.0990413 220.31091595 212.00784779 C219.49292052 212.00561075 218.6749251 212.00337371 217.83214194 212.00106889 C196.79611017 211.9198702 175.84109681 210.88600718 154.85436881 209.51753247 C142.68593826 208.73323252 130.52540556 208.2129649 118.33703899 207.86111927 C117.46725263 207.83593777 116.59746626 207.81075627 115.70132273 207.7848117 C111.33340402 207.6596384 106.9653831 207.53854726 102.5972985 207.41931856 C76.25598597 206.69549901 49.9386484 205.69523196 23.63002074 204.18905175 C21.5814027 204.07181946 19.53270189 203.95611792 17.48399258 203.8404932 C13.76256131 203.62783947 10.04172655 203.40723815 6.32103252 203.1820879 C5.22350861 203.11815301 4.1259847 203.05421811 2.99520248 202.9883458 C2.00862925 202.92591826 1.02205602 202.86349073 0.00558662 202.79917145 C-0.85223933 202.74642805 -1.71006528 202.69368465 -2.59388596 202.63934296 C-4.5289278 202.40237904 -4.5289278 202.40237904 -5.5289278 201.40237904 C-5.62892237 198.82488139 -5.66333581 196.2741141 -5.65591145 193.69608021 C-5.65747144 192.87922088 -5.65903143 192.06236155 -5.66063869 191.2207489 C-5.66465212 188.46226393 -5.66145773 185.70383324 -5.65832233 182.94534779 C-5.65967622 180.97640418 -5.66145609 179.00746082 -5.66363239 177.03851795 C-5.6682082 171.67503843 -5.66641656 166.31157806 -5.66325331 160.94809818 C-5.66073046 155.34846665 -5.66306703 149.7488368 -5.66463947 144.14920521 C-5.66646139 134.74368462 -5.66405428 125.33817187 -5.6592989 115.93265247 C-5.65385624 105.04166727 -5.65561888 94.15070078 -5.6611253 83.25971603 C-5.6656558 73.9272718 -5.66630729 64.59483321 -5.66368663 55.26238823 C-5.66212351 49.6804985 -5.66193105 44.09861758 -5.66522312 38.5167284 C-5.66810092 33.27030398 -5.66612783 28.02390382 -5.66032887 22.77748203 C-5.65900078 20.84605798 -5.6593962 18.91463191 -5.66159153 16.98320866 C-5.66430113 14.35833702 -5.66092426 11.73354439 -5.65591145 9.10867786 C-5.65814217 8.33408317 -5.66037289 7.55948847 -5.66267121 6.7614212 C-5.63873575 0.35427161 -5.63873575 0.35427161 0 0 Z " fill="currentColor" transform="translate(5.528927803039551,0.597620964050293)"/>
</svg>
