<?xml version="1.0" encoding="UTF-8"?>
<svg version="1.1" xmlns="http://www.w3.org/2000/svg" width="404" height="267">
<path d="M0 0 C0 21.78 0 43.56 0 66 C42.9 66 85.8 66 130 66 C130 44.22 130 22.44 130 0 C135.32183832 4.56157571 140.18395077 9.13021488 145.05859375 14.12109375 C147.14910908 16.21739704 149.32582091 18.15782422 151.57836914 20.07836914 C156.50596036 24.37378371 161.08945111 28.98218327 165.6875 33.625 C166.58944092 34.53072754 167.49138184 35.43645508 168.4206543 36.36962891 C171.76605444 39.72921306 175.10688392 43.09331262 178.4473877 46.45776367 C181.732918 49.76634351 185.02233791 53.07102481 188.3125 56.375 C189.16481201 57.23561035 190.01712402 58.0962207 190.89526367 58.98291016 C195.1260303 63.23083589 199.42829608 67.29124059 203.97363281 71.19848633 C207.97630654 74.75700794 211.70189817 78.60175706 215.46875 82.40625 C216.34849487 83.28978149 217.22823975 84.17331299 218.13464355 85.08361816 C221.39656945 88.3597232 224.65392564 91.6403498 227.91094971 94.92132568 C231.1148726 98.14830538 234.32269116 101.3713808 237.53125 104.59375 C238.36168823 105.43248657 239.19212646 106.27122314 240.04772949 107.13537598 C244.33041847 111.43587239 248.68004506 115.58320086 253.28953552 119.53279114 C255.79094562 121.67846041 258.18509907 123.90446919 260.5625 126.1875 C261.86380859 127.41533203 261.86380859 127.41533203 263.19140625 128.66796875 C265 131 265 131 264.96875 133.09375 C263.86593695 135.26380149 262.69888275 136.63136248 260.9375 138.3125 C260.38964844 138.84488281 259.84179688 139.37726563 259.27734375 139.92578125 C257.98658143 141.10141554 256.68694702 142.26791615 255.36048889 143.40312195 C249.82040559 148.15351523 244.66401191 153.22219782 239.53125 158.40625 C238.65150513 159.28978149 237.77176025 160.17331299 236.86535645 161.08361816 C234.07445494 163.88665133 231.28670768 166.69279916 228.5 169.5 C224.82601262 173.2010055 221.14834398 176.89831822 217.46875 180.59375 C216.63831177 181.43248657 215.80787354 182.27122314 214.95227051 183.13537598 C211.39769654 186.70472988 207.83455765 190.20183226 204.01367188 193.48632812 C199.20335 197.62349761 194.77495431 202.11909803 190.3125 206.625 C189.41055908 207.53072754 188.50861816 208.43645508 187.5793457 209.36962891 C184.71711436 212.24399569 181.85804198 215.1214694 179 218 C175.23225667 221.79475338 171.46084455 225.58581381 167.6875 229.375 C166.83518799 230.23561035 165.98287598 231.0962207 165.10473633 231.98291016 C160.77868198 236.32651008 156.38066166 240.49672462 151.730896 244.49172974 C149.49894984 246.4366057 147.41768987 248.50189722 145.3515625 250.62109375 C144.57425781 251.41064453 143.79695313 252.20019531 142.99609375 253.01367188 C141.39023415 254.65524664 139.78611802 256.29852846 138.18359375 257.94335938 C137.41402344 258.72388672 136.64445312 259.50441406 135.8515625 260.30859375 C135.15885254 261.01814209 134.46614258 261.72769043 133.75244141 262.45874023 C132 264 132 264 130 264 C130 242.55 130 221.1 130 199 C87.1 199 44.2 199 0 199 C0 220.45 0 241.9 0 264 C-3.99578018 262.00210991 -6.0441138 260.1745147 -9.140625 257.01953125 C-9.62650085 256.52845383 -10.11237671 256.0373764 -10.61297607 255.53141785 C-12.16350303 253.96314352 -13.70719156 252.38836518 -15.25 250.8125 C-16.77930931 249.25530129 -18.31014947 247.6996917 -19.84417725 246.1471405 C-21.24748537 244.72618497 -22.64586889 243.30037088 -24.04394531 241.87426758 C-26.19866691 239.72926912 -28.44322976 237.73009358 -30.74902344 235.7487793 C-35.62806224 231.52053076 -40.14636831 226.96034537 -44.6875 222.375 C-45.58944092 221.46927246 -46.49138184 220.56354492 -47.4206543 219.63037109 C-50.76605444 216.27078694 -54.10688392 212.90668738 -57.4473877 209.54223633 C-60.732918 206.23365649 -64.02233791 202.92897519 -67.3125 199.625 C-68.16481201 198.76438965 -69.01712402 197.9037793 -69.89526367 197.01708984 C-74.1260303 192.76916411 -78.42829608 188.70875941 -82.97363281 184.80151367 C-86.97630654 181.24299206 -90.70189817 177.39824294 -94.46875 173.59375 C-95.34849487 172.71021851 -96.22823975 171.82668701 -97.13464355 170.91638184 C-100.39656945 167.6402768 -103.65392564 164.3596502 -106.91094971 161.07867432 C-110.1148726 157.85169462 -113.32269116 154.6286192 -116.53125 151.40625 C-117.36168823 150.56751343 -118.19212646 149.72877686 -119.04772949 148.86462402 C-123.36106833 144.5333503 -127.71680766 140.42098248 -132.48522949 136.59118652 C-134.25046327 134.73690154 -134.71923326 133.52875937 -135 131 C-133.86352539 129.2800293 -133.86352539 129.2800293 -132.09765625 127.57421875 C-131.45376953 126.94193359 -130.80988281 126.30964844 -130.14648438 125.65820312 C-129.45876953 125.00787109 -128.77105469 124.35753906 -128.0625 123.6875 C-127.08313477 122.7294043 -127.08313477 122.7294043 -126.08398438 121.75195312 C-122.91754943 118.67892334 -119.68134714 115.72501466 -116.33569336 112.84887695 C-111.51637233 108.64400935 -107.02949848 104.13694824 -102.53125 99.59375 C-101.65150513 98.71021851 -100.77176025 97.82668701 -99.86535645 96.91638184 C-97.07445494 94.11334867 -94.28670768 91.30720084 -91.5 88.5 C-87.82601262 84.7989945 -84.14834398 81.10168178 -80.46875 77.40625 C-79.63831177 76.56751343 -78.80787354 75.72877686 -77.95227051 74.86462402 C-74.39769654 71.29527012 -70.83455765 67.79816774 -67.01367188 64.51367188 C-62.20335 60.37650239 -57.77495431 55.88090197 -53.3125 51.375 C-52.41055908 50.46927246 -51.50861816 49.56354492 -50.5793457 48.63037109 C-47.71711436 45.75600431 -44.85804198 42.8785306 -42 40 C-38.23225667 36.20524662 -34.46084455 32.41418619 -30.6875 28.625 C-29.40903198 27.33408447 -29.40903198 27.33408447 -28.10473633 26.01708984 C-23.78271659 21.67754089 -19.40287804 17.48719453 -14.7386322 13.51597595 C-11.86660237 11.01174984 -9.22101734 8.28944764 -6.5625 5.5625 C-1.13259833 -0 -1.13259833 -0 0 0 Z " fill="currentColor" transform="translate(137,1)"/>
</svg>
