<?xml version="1.0" encoding="UTF-8"?>
<svg version="1.1" xmlns="http://www.w3.org/2000/svg" width="404" height="202">
<path d="M0 0 C132.66 0 265.32 0 402 0 C391.6830404 21.78024804 391.6830404 21.78024804 388.29052734 28.40551758 C387.47900621 30.00233043 386.66751448 31.59915822 385.85604858 33.19599915 C385.44486156 34.00290003 385.03367455 34.80980091 384.61002731 35.64115334 C382.37763677 40.02743531 380.16093741 44.42165433 377.94140625 48.81445312 C375.14294903 54.35121137 372.33977184 59.88542829 369.52001953 65.41137695 C367.21344417 69.93265579 364.9225111 74.46155216 362.64195633 78.99600792 C361.77608815 80.71049723 360.90449695 82.42210903 360.0270195 84.13068581 C358.80828964 86.50546581 357.60979948 88.88946021 356.41552734 91.27661133 C356.05204193 91.9732489 355.68855652 92.66988647 355.3140564 93.38763428 C353.15967469 97.76027088 352.50872298 100.34382332 354 105 C355.3721831 108.23077445 356.92760449 111.350486 358.51977539 114.4777832 C358.9880928 115.41339584 359.45641022 116.34900848 359.93891907 117.31297302 C361.48438812 120.39604382 363.04101882 123.47333644 364.59765625 126.55078125 C365.67315409 128.69177473 366.74788636 130.83315294 367.82188416 132.97489929 C370.6475529 138.60531627 373.48244985 144.23103411 376.31964111 149.85565186 C380.86721485 158.87547094 385.39981112 167.90283038 389.93420219 176.92928123 C391.52280264 180.08871223 393.11472922 183.24644896 394.70729065 186.40388489 C395.67477064 188.32563437 396.64221543 190.24740157 397.60961914 192.16918945 C398.05688354 193.05383881 398.50414795 193.93848816 398.96496582 194.84994507 C399.36740005 195.65040756 399.76983429 196.45087006 400.1844635 197.27558899 C400.53713319 197.9748113 400.88980288 198.6740336 401.25315952 199.39444447 C402 201 402 201 402 202 C269.34 202 136.68 202 0 202 C10.3169596 180.21975196 10.3169596 180.21975196 13.70947266 173.59448242 C14.52099379 171.99766957 15.33248552 170.40084178 16.14395142 168.80400085 C16.55513844 167.99709997 16.96632545 167.19019909 17.38997269 166.35884666 C19.62236323 161.97256469 21.83906259 157.57834567 24.05859375 153.18554688 C26.85705097 147.64878863 29.66022816 142.11457171 32.47998047 136.58862305 C34.78655583 132.06734421 37.0774889 127.53844784 39.35804367 123.00399208 C40.22391185 121.28950277 41.09550305 119.57789097 41.9729805 117.86931419 C43.19171036 115.49453419 44.39020052 113.11053979 45.58447266 110.72338867 C45.94795807 110.0267511 46.31144348 109.33011353 46.6859436 108.61236572 C48.84032531 104.23972912 49.49127702 101.65617668 48 97 C46.6278169 93.76922555 45.07239551 90.649514 43.48022461 87.5222168 C43.0119072 86.58660416 42.54358978 85.65099152 42.06108093 84.68702698 C40.51561188 81.60395618 38.95898118 78.52666356 37.40234375 75.44921875 C36.32684591 73.30822527 35.25211364 71.16684706 34.17811584 69.02510071 C31.3524471 63.39468373 28.51755015 57.76896589 25.68035889 52.14434814 C21.13278515 43.12452906 16.60018888 34.09716962 12.06579781 25.07071877 C10.47719736 21.91128777 8.88527078 18.75355104 7.29270935 15.59611511 C6.32522936 13.67436563 5.35778457 11.75259843 4.39038086 9.83081055 C3.71948425 8.50383652 3.71948425 8.50383652 3.03503418 7.15005493 C2.63259995 6.34959244 2.23016571 5.54912994 1.8155365 4.72441101 C1.28653197 3.67557755 1.28653197 3.67557755 0.74684048 2.60555553 C0 1 0 1 0 0 Z " fill="currentColor" transform="translate(1,0)"/>
</svg>
