<?xml version="1.0" encoding="UTF-8"?>
<svg version="1.1" xmlns="http://www.w3.org/2000/svg" width="370" height="405">
<path d="M0 0 C120.45 0 240.9 0 365 0 C365 132.66 365 265.32 365 402 C353.74701263 398.62410379 353.74701263 398.62410379 349.68188477 397.24511719 C348.75861389 396.93278641 347.83534302 396.62045563 346.88409424 396.29866028 C345.9130072 395.96807114 344.94192017 395.63748199 343.94140625 395.296875 C342.89660095 394.94255905 341.85179565 394.5882431 340.77532959 394.22319031 C337.3703424 393.06754013 333.96636364 391.90895498 330.5625 390.75 C329.38529388 390.34983673 328.20808777 389.94967346 326.99520874 389.53738403 C310.54915936 383.9461078 294.13086318 378.28053662 277.73806763 372.53521729 C262.85192574 367.31985789 247.9344464 362.20033578 233 357.125 C231.48619247 356.61016556 231.48619247 356.61016556 229.94180298 356.08493042 C228.9585202 355.75067047 227.97523743 355.41641052 226.9621582 355.07202148 C225.98704788 354.73941818 225.01193756 354.40681488 224.00727844 354.06413269 C222.04100523 353.40054388 220.07078144 352.74855007 218.09684753 352.10810852 C212.77942886 350.3692329 207.66372251 348.45043494 202.55078125 346.17480469 C184.26105014 338.40433049 171.8866631 341.03463918 153.97874451 348.21903992 C150.5991843 349.55286629 147.18377442 350.78782114 143.77050781 352.03222656 C138.31867655 354.03063324 132.88656512 356.07448439 127.46679688 358.15820312 C118.4782186 361.60871962 109.39528689 364.76213191 100.28662109 367.87835693 C96.90418123 369.04064336 93.52985958 370.22553172 90.15539551 371.41073608 C77.1324875 375.98330218 64.06828165 380.43410157 51 384.875 C49.98997925 385.21849487 48.9799585 385.56198975 47.93933105 385.91589355 C31.98037998 391.34103458 15.99122694 396.66959102 0 402 C0 269.34 0 136.68 0 0 Z " fill="currentColor" transform="translate(2,2)"/>
</svg>
