<?xml version="1.0" encoding="UTF-8"?>
<svg version="1.1" xmlns="http://www.w3.org/2000/svg" width="318" height="405">
<path d="M0 0 C103.62 0 207.24 0 314 0 C314 113.85 314 227.7 314 345 C306.51075947 348.12051689 299.11371519 351.13316792 291.484375 353.8359375 C290.49882126 354.18810837 289.51326752 354.54027924 288.49784851 354.90312195 C285.24956323 356.06323171 281.99976976 357.21905593 278.75 358.375 C275.23490952 359.62938569 271.72023185 360.88492381 268.20555115 362.14045715 C265.72290516 363.02720966 263.24012454 363.91358528 260.75721741 364.79960632 C251.25415923 368.19098735 241.7566576 371.59767654 232.26171875 375.01171875 C231.5604826 375.2638488 230.85924644 375.51597885 230.13676071 375.77574921 C225.92137227 377.29148446 221.70612028 378.80759888 217.49092102 380.32386017 C214.8202409 381.2845354 212.14955885 382.24520518 209.47877026 383.2055788 C208.18467287 383.67107305 206.89069185 384.13689094 205.59682941 384.60303783 C202.43978892 385.7398476 199.28050822 386.86908325 196.11711121 387.98817444 C189.8273734 390.21979057 183.59995548 392.54161517 177.41821289 395.05297852 C155.57696317 403.81807899 155.57696317 403.81807899 145.14916992 399.57983398 C143.96556885 398.99661377 142.78196777 398.41339355 141.5625 397.8125 C140.18059855 397.22271158 138.79400219 396.64383524 137.40356445 396.07446289 C134.30814718 394.80096983 131.23319256 393.48852543 128.16308594 392.15527344 C119.29634207 388.37813101 110.14585917 385.32103041 101.05770874 382.12640381 C95.38255007 380.12438605 89.72127357 378.08386214 84.05859375 376.046875 C81.73557203 375.21272989 79.41249214 374.37874678 77.08935547 373.54492188 C75.92619812 373.12734619 74.76304077 372.70977051 73.56463623 372.27954102 C63.94355469 368.82601374 54.32156569 365.37501641 44.69937134 361.92459106 C41.34851038 360.72283001 37.99785351 359.52050134 34.6472168 358.31811523 C32.56169489 357.5701255 30.47616471 356.82215885 28.390625 356.07421875 C27.48735977 355.74991882 26.58409454 355.4256189 25.65345764 355.0914917 C17.11300918 352.02976229 8.55585037 349.0197119 0 346 C0 231.82 0 117.64 0 0 Z " fill="currentColor" transform="translate(2,2)"/>
</svg>
