<?xml version="1.0" encoding="UTF-8"?>
<svg version="1.1" xmlns="http://www.w3.org/2000/svg" width="404" height="404">
<path d="M0 0 C0.84587138 -0.00905664 1.69174276 -0.01811328 2.56324661 -0.02744436 C3.95743715 -0.01945247 3.95743715 -0.01945247 5.37979317 -0.01129913 C6.36704828 -0.01739024 7.3543034 -0.02348134 8.37147534 -0.02975702 C11.69493015 -0.04646755 15.0180052 -0.04159968 18.34149361 -0.03681183 C20.71803373 -0.0441475 23.09457029 -0.05273226 25.47110176 -0.06247711 C31.26567711 -0.08243911 37.06013426 -0.08807074 42.85474144 -0.08628923 C47.56430806 -0.08498256 52.27384342 -0.08878086 56.98340416 -0.09621429 C58.33903889 -0.09831345 59.69467362 -0.10041105 61.05030835 -0.10250711 C61.72501204 -0.10355064 62.39971572 -0.10459417 63.09486498 -0.10566932 C75.86147186 -0.12458055 88.62802132 -0.12351892 101.39463641 -0.11669999 C113.07617137 -0.11112495 124.75748698 -0.1319466 136.43897067 -0.16506046 C148.42967029 -0.19878736 160.42026482 -0.21396699 172.41101277 -0.20934343 C179.14444009 -0.20709757 185.87766472 -0.21235855 192.61105156 -0.23723602 C198.94272354 -0.25943903 205.27393805 -0.25767862 211.6056118 -0.2373085 C213.93205047 -0.23388698 216.25851956 -0.2390363 218.58491707 -0.25329208 C221.7561764 -0.27138688 224.92586769 -0.25880711 228.09707832 -0.23834991 C229.02207724 -0.25086776 229.94707617 -0.26338561 230.90010536 -0.27628279 C235.32104877 -0.21496033 237.22571409 -0.13063567 240.76878548 2.71479607 C241.46067467 3.59533968 242.15256386 4.47588329 242.86541939 5.38311005 C243.43675165 5.95444231 244.00808392 6.52577457 244.59672928 7.11441994 C268.01962598 30.53731664 291.44252268 53.96021334 314.86541939 77.38311005 C315.38303506 77.82335164 315.90065074 78.26359324 316.43395174 78.71717548 C318.22303346 80.79929943 318.24269466 81.80199477 318.24852943 84.51769066 C318.26211439 85.78649773 318.26211439 85.78649773 318.2759738 87.08093727 C318.26798191 88.47512781 318.26798191 88.47512781 318.25982857 89.89748383 C318.26591967 90.88473894 318.27201077 91.87199406 318.27828646 92.889166 C318.29499699 96.21262081 318.29012912 99.53569586 318.28534126 102.85918427 C318.29267694 105.23572439 318.30126169 107.61226095 318.31100655 109.98879242 C318.33096854 115.78336777 318.33660017 121.57782492 318.33481866 127.3724321 C318.33351199 132.08199872 318.33731029 136.79153408 318.34474373 141.50109482 C318.34684289 142.85672954 318.34894049 144.21236427 318.35103655 145.56799901 C318.35260184 146.58005454 318.35260184 146.58005454 318.35419875 147.61255564 C318.37310998 160.37916252 318.37204835 173.14571197 318.36522943 185.91232707 C318.35965438 197.59386202 318.38047603 209.27517764 318.41358989 220.95666133 C318.44731679 232.94736095 318.46249642 244.93795548 318.45787287 256.92870343 C318.45562701 263.66213075 318.46088798 270.39535538 318.48576546 277.12874222 C318.50796847 283.4604142 318.50620806 289.79162871 318.48583794 296.12330246 C318.48241642 298.44974113 318.48756574 300.77621022 318.50182152 303.10260773 C318.51991632 306.27386706 318.50733655 309.44355835 318.48687935 312.61476898 C318.4993972 313.5397679 318.51191504 314.46476682 318.52481222 315.41779602 C318.46348977 319.83873943 318.37916511 321.74340475 315.53373337 325.28647614 C314.65318975 325.97836533 313.77264614 326.67025452 312.86541939 327.38311005 C312.29408712 327.95444231 311.72275486 328.52577457 311.1341095 329.11441994 C287.71121279 352.53731664 264.28831609 375.96021334 240.86541939 399.38311005 C240.205057 400.15953356 240.205057 400.15953356 239.53135395 400.95164239 C237.44923 402.74072412 236.44653467 402.76038532 233.73083878 402.76622009 C232.8849674 402.77527673 232.03909601 402.78433337 231.16759217 402.79366446 C229.77340162 402.78567257 229.77340162 402.78567257 228.35104561 402.77751923 C227.36379049 402.78361033 226.37653538 402.78970143 225.35936344 402.79597712 C222.03590863 402.81268765 218.71283358 402.80781978 215.38934517 402.80303192 C213.01280504 402.8103676 210.63626849 402.81895235 208.25973701 402.8286972 C202.46516166 402.8486592 196.67070451 402.85429083 190.87609734 402.85250932 C186.16653072 402.85120265 181.45699535 402.85500095 176.74743462 402.86243439 C175.39179989 402.86453355 174.03616516 402.86663115 172.68053043 402.86872721 C172.00582674 402.86977073 171.33112305 402.87081426 170.6359738 402.87188941 C157.86936691 402.89080064 145.10281746 402.88973901 132.33620237 402.88292009 C120.65466741 402.87734504 108.9733518 402.89816669 97.29186811 402.93128055 C85.30116848 402.96500745 73.31057396 402.98018708 61.31982601 402.97556353 C54.58639869 402.97331766 47.85317406 402.97857864 41.11978722 403.00345612 C34.78811524 403.02565913 28.45690073 403.02389872 22.12522697 403.00352859 C19.7987883 403.00010708 17.47231922 403.0052564 15.14592171 403.01951218 C11.97466238 403.03760697 8.80497109 403.0250272 5.63376045 403.00457001 C4.70876153 403.01708786 3.78376261 403.0296057 2.83073342 403.04250288 C-1.59021 402.98118043 -3.49487531 402.89685577 -7.0379467 400.05142403 C-7.72983589 399.17088041 -8.42172508 398.2903368 -9.13458061 397.38311005 C-9.99157901 396.52611165 -9.99157901 396.52611165 -10.8658905 395.65180016 C-34.28878721 372.22890345 -57.71168391 348.80600675 -81.13458061 325.38311005 C-81.65219629 324.94286845 -82.16981196 324.50262686 -82.70311296 324.04904461 C-84.49219468 321.96692066 -84.51185588 320.96422533 -84.51769066 318.24852943 C-84.5267473 317.40265805 -84.53580394 316.55678667 -84.54513502 315.68528283 C-84.5398071 314.75582246 -84.53447917 313.8263621 -84.52898979 312.86873627 C-84.5350809 311.88148115 -84.541172 310.89422603 -84.54744768 309.8770541 C-84.56415821 306.55359928 -84.55929034 303.23052423 -84.55450249 299.90703583 C-84.56183816 297.5304957 -84.57042291 295.15395914 -84.58016777 292.77742767 C-84.60012977 286.98285232 -84.6057614 281.18839517 -84.60397989 275.39378799 C-84.60267322 270.68422138 -84.60647151 265.97468601 -84.61390495 261.26512527 C-84.61600411 259.90949055 -84.61810171 258.55385582 -84.62019777 257.19822109 C-84.6212413 256.5235174 -84.62228483 255.84881371 -84.62335998 255.15366445 C-84.64227121 242.38705757 -84.64120958 229.62050812 -84.63439065 216.85389303 C-84.62881561 205.17235807 -84.64963726 193.49104246 -84.68275112 181.80955876 C-84.71647801 169.81885914 -84.73165764 157.82826462 -84.72703409 145.83751667 C-84.72478823 139.10408935 -84.73004921 132.37086472 -84.75492668 125.63747787 C-84.77712969 119.3058059 -84.77536928 112.97459138 -84.75499916 106.64291763 C-84.75157764 104.31647896 -84.75672696 101.99000988 -84.77098274 99.66361237 C-84.78907754 96.49235304 -84.77649777 93.32266175 -84.75604057 90.15145111 C-84.76855842 89.22645219 -84.78107627 88.30145327 -84.79397345 87.34842408 C-84.73265099 82.92748066 -84.64832633 81.02281535 -81.80289459 77.47974396 C-80.92235098 76.78785477 -80.04180737 76.09596558 -79.13458061 75.38311005 C-78.27758222 74.52611165 -78.27758222 74.52611165 -77.40327072 73.65180016 C-53.98037402 50.22890345 -30.55747732 26.80600675 -7.13458061 3.38311005 C-6.69433902 2.86549437 -6.25409742 2.3478787 -5.80051517 1.8145777 C-3.71839123 0.02549598 -2.71569589 0.00583478 0 0 Z " fill="currentColor" transform="translate(85.13458061218262,0.6168899536132813)"/>
</svg>
